<svg width="8" height="13" viewBox="0 0 8 13" fill="none" xmlns="http://www.w3.org/2000/svg">
<path d="M1.01089 11.4404C1.01002 11.3684 1.0241 11.2971 1.05223 11.2309C1.08036 11.1647 1.12192 11.1052 1.17423 11.0562L5.6824 6.50031L1.17423 1.94442C0.956444 1.72486 0.956444 1.38454 1.17423 1.16498C1.39202 0.945415 1.72958 0.945415 1.94737 1.16498L6.83666 6.11607C7.05445 6.33563 7.05445 6.67595 6.83666 6.89551L1.93648 11.8356C1.71869 12.0552 1.38113 12.0552 1.16334 11.8356C1.05445 11.7259 1 11.5831 1 11.4514L1.01089 11.4404Z" fill="white"/>
<path d="M7.54588 5.41144C8.11258 5.98276 8.14915 6.87091 7.6533 7.48175L7.54686 7.59992L2.64647 12.5403C2.03753 13.154 1.062 13.1541 0.453107 12.5403C0.159718 12.2446 9.95726e-07 11.8488 -1.84601e-05 11.4515L-1.8465e-05 11.0394L0.0937315 10.9446C0.105677 10.9096 0.117288 10.8744 0.131817 10.8402C0.209429 10.6576 0.323146 10.4922 0.464825 10.3528L0.463849 10.3528L4.27635 6.50031L0.464825 2.64777C-0.139515 2.03834 -0.140592 1.06964 0.463849 0.460268C1.07271 -0.153507 2.04825 -0.153338 2.65721 0.460268L2.65916 0.462221L7.54588 5.41144ZM6.8369 6.89581C7.05457 6.67637 7.05433 6.33609 6.8369 6.11652L1.94725 1.16535C1.72946 0.945785 1.3916 0.945785 1.17381 1.16535C0.956436 1.38489 0.956239 1.72521 1.17381 1.94464L5.6826 6.50031L1.17381 11.056C1.12155 11.105 1.07985 11.1646 1.05174 11.2308C1.02363 11.2969 1.00985 11.3688 1.01072 11.4407L0.999982 11.4515C0.999996 11.5501 1.03069 11.6549 1.09178 11.7474L1.16307 11.8353C1.38085 12.0548 1.71872 12.0548 1.9365 11.8353L6.8369 6.89581Z" fill="white"/>
</svg>
